<svg xmlns="http://www.w3.org/2000/svg" width="75" height="30.649" viewBox="0 0 75 30.649">
  <g id="Group_102" data-name="Group 102" transform="translate(0)">
    <g id="Hat_Icon" data-name="Hat Icon" transform="translate(0)" opacity="0.8">
      <g id="Group_6" data-name="Group 6">
        <g id="Group_5" data-name="Group 5" transform="translate(0)">
          <path id="Path_24" data-name="Path 24" d="M72.922,116.181l47.367-6.88-20.766-3.44-2.233-14.7-18.93-5.63-12.132,6.88-2.4,13.916L45.29,108.519Z" transform="translate(-45.29 -85.532)" fill="rgba(255,255,255,0.5)"/>
          <path id="Path_25" data-name="Path 25" d="M45.29,116.166l18.535-2.19,14.535,3.7,21.162-4.171,20.768,3.441-47.371,6.88Z" transform="translate(-45.29 -93.18)" fill="rgba(255,255,255,0.48)"/>
          <path id="Path_26" data-name="Path 26" d="M86.758,110.03l21.162-4.171-2.233-14.7L86.758,85.532Z" transform="translate(-53.687 -85.532)" fill="rgba(255,255,255,0.5)"/>
          <path id="Path_27" data-name="Path 27" d="M106.538,113.509l20.768,3.44-47.371,6.88,5.438-6.15Z" transform="translate(-52.305 -93.18)" fill="rgba(255,255,255,0.5)"/>
          <path id="Path_28" data-name="Path 28" d="M51.439,116.167l22.192,7.585,43.053-6.674,3.6.6-47.371,6.88L45.29,116.894Z" transform="translate(-45.29 -93.907)" fill="rgba(255,255,255,0.7)"/>
        </g>
      </g>
      <path id="Path_1" data-name="Path 1" d="M144.4,1526.93l13.614,2.107,20.17-2.945.49,3.405-20.66,3.611-14.092-2.964Z" transform="translate(-124.874 -1511.97)" fill="rgba(255,255,255,0.7)"/>
    </g>
  </g>
</svg>
