<?xml version="1.0" encoding="UTF-8" standalone="no"?>
<svg
   xmlns:dc="http://purl.org/dc/elements/1.1/"
   xmlns:cc="http://creativecommons.org/ns#"
   xmlns:rdf="http://www.w3.org/1999/02/22-rdf-syntax-ns#"
   xmlns:svg="http://www.w3.org/2000/svg"
   xmlns="http://www.w3.org/2000/svg"
   xmlns:sodipodi="http://sodipodi.sourceforge.net/DTD/sodipodi-0.dtd"
   xmlns:inkscape="http://www.inkscape.org/namespaces/inkscape"
   version="1.1"
   id="svg2"
   xml:space="preserve"
   width="238.11067"
   height="332.59866"
   viewBox="0 0 238.11067 332.59866"
   sodipodi:docname="Template.ai"><metadata
     id="metadata8"><rdf:RDF><cc:Work
         rdf:about=""><dc:format>image/svg+xml</dc:format><dc:type
           rdf:resource="http://purl.org/dc/dcmitype/StillImage" /></cc:Work></rdf:RDF></metadata><defs
     id="defs6" /><sodipodi:namedview
     pagecolor="#ffffff"
     bordercolor="#666666"
     borderopacity="1"
     objecttolerance="10"
     gridtolerance="10"
     guidetolerance="10"
     inkscape:pageopacity="0"
     inkscape:pageshadow="2"
     inkscape:window-width="640"
     inkscape:window-height="480"
     id="namedview4" /><g
     id="g10"
     inkscape:groupmode="layer"
     inkscape:label="Template"
     transform="matrix(1.3333333,0,0,-1.3333333,0,332.59867)"><path
       d="M 0,0 H 178.583 V 249.449 H 0 Z"
       style="fill:#826d5f;fill-opacity:1;fill-rule:nonzero;stroke:none"
       id="path12" /><path
       d="M 4.251,0 H 174.332 V 249.449 H 4.251 Z"
       style="fill:#4d4d4d;fill-opacity:1;fill-rule:nonzero;stroke:none"
       id="path14" /><path
       d="m 28.346,0 h 121.89 V 249.449 H 28.346 Z"
       style="fill:#d3c2af;fill-opacity:1;fill-rule:nonzero;stroke:none"
       id="path16" /><path
       d="M 123.87,70.866 H 54.712 v 107.717 h 69.158 z"
       style="fill:#ffffff;fill-opacity:1;fill-rule:nonzero;stroke:none"
       id="path18" /><g
       aria-label="SUB
TEXT"
       transform="matrix(1,0,0,-1,79.688,38.4336)"
       id="text24"
       style="font-variant:normal;font-weight:normal;font-stretch:normal;font-size:8px;font-family:Sylfaen;-inkscape-font-specification:Sylfaen;writing-mode:lr-tb;fill:#000000;fill-opacity:1;fill-rule:nonzero;stroke:none"><path
         d="m 4.28125,-5.640625 v 0.7695313 Q 3.8320313,-5.0859375 3.4335938,-5.1914062 3.0351563,-5.296875 2.6640625,-5.296875 q -0.6445312,0 -0.9960938,0.25 -0.3476562,0.25 -0.3476562,0.7109375 0,0.3867187 0.2304687,0.5859375 0.234375,0.1953125 0.8828126,0.3164062 l 0.4765625,0.097656 q 0.8828125,0.1679687 1.3007812,0.59375 0.421875,0.421875 0.421875,1.1328125 0,0.84765625 -0.5703125,1.28515625 -0.5664062,0.4375 -1.6640625,0.4375 -0.4140625,0 -0.8828125,-0.09375 -0.4648438,-0.09375 -0.96484375,-0.27734375 v -0.8125 q 0.48046875,0.26953125 0.94140625,0.40625 0.4609375,0.13671875 0.90625,0.13671875 0.6757813,0 1.0429688,-0.265625 0.3671875,-0.26562495 0.3671875,-0.75781245 0,-0.4296875 -0.265625,-0.6718751 Q 3.28125,-2.4648438 2.6796875,-2.5859375 l -0.4804687,-0.09375 Q 1.3164062,-2.8554688 0.921875,-3.2304688 q -0.39453125,-0.375 -0.39453125,-1.0429687 0,-0.7734375 0.54296875,-1.21875 Q 1.6171875,-5.9375 2.5742188,-5.9375 q 0.4101562,0 0.8359375,0.074219 0.4257812,0.074219 0.8710937,0.2226562 z"
         id="path30" /><path
         d="m 6.1433125,-5.8320312 h 0.7929687 v 3.5429687 q 0,0.9375 0.3398438,1.3515625 0.3398437,0.41015625 1.1015625,0.41015625 0.7578125,0 1.0976562,-0.41015625 0.3398438,-0.4140625 0.3398438,-1.3515625 v -3.5429687 h 0.7929685 v 3.6406249 q 0,1.1406251 -0.566406,1.7226563 -0.5625,0.58203125 -1.6640625,0.58203125 -1.1054688,0 -1.671875,-0.58203125 -0.5625,-0.5820312 -0.5625,-1.7226563 z"
         id="path32" /><path
         d="m 14.366219,-2.7851563 v 2.1367188 h 1.265625 q 0.636718,0 0.941406,-0.26171875 0.308594,-0.26562495 0.308594,-0.80859375 0,-0.546875 -0.308594,-0.8046875 -0.304688,-0.2617188 -0.941406,-0.2617188 z m 0,-2.3984374 v 1.7578124 h 1.167968 q 0.578125,0 0.859375,-0.2148437 0.285157,-0.21875 0.285157,-0.6640625 0,-0.4414062 -0.285157,-0.6601562 -0.28125,-0.21875 -0.859375,-0.21875 z m -0.789063,-0.6484375 h 2.015625 q 0.902344,0 1.390625,0.375 0.488281,0.375 0.488281,1.0664062 0,0.5351562 -0.25,0.8515625 -0.25,0.3164062 -0.734375,0.3945312 0.582032,0.125 0.902344,0.5234375 0.324219,0.3945313 0.324219,0.9882813 0,0.78125 -0.53125,1.20703125 Q 16.651375,0 15.670906,0 h -2.09375 z"
         id="path34" /><path
         d="M -3.3914375,3.1679688 H 1.5421562 V 3.8320313 H -0.52815628 V 9 H -1.321125 V 3.8320313 h -2.0703125 z"
         id="path36" /><path
         d="m 3.8411562,3.1679688 h 3.6875 V 3.8320313 H 4.6302187 V 5.5585937 H 7.4075625 V 6.2226562 H 4.6302187 v 2.1132813 h 2.96875 V 9 H 3.8411562 Z"
         id="path38" /><path
         d="m 9.8319063,3.1679688 h 0.8476567 l 1.449218,2.1679687 1.457032,-2.1679687 h 0.847656 l -1.875,2.8007812 2,3.03125 H 13.710813 L 12.070188,6.5195312 10.417844,9 H 9.5662813 L 11.648313,5.8867187 Z"
         id="path40" /><path
         d="m 16.120562,3.1679688 h 4.933593 V 3.8320313 H 18.983843 V 9 H 18.190874 V 3.8320313 h -2.070312 z"
         id="path42" /></g><g
       aria-label="Title"
       transform="matrix(1,0,0,-1,73.7974,211.0161)"
       id="text28"
       style="font-variant:normal;font-weight:normal;font-stretch:normal;font-size:14px;font-family:Sylfaen;-inkscape-font-specification:Sylfaen;writing-mode:lr-tb;fill:#000000;fill-opacity:1;fill-rule:nonzero;stroke:none"><path
         d="M -0.04101562,-10.206055 H 8.5927734 v 1.1621097 H 4.9697266 V 0 H 3.5820313 v -9.0439453 h -3.62304692 z"
         id="path45" /><path
         d="m 10.461336,-7.65625 h 1.257813 V 0 h -1.257813 z m 0,-2.980469 h 1.257813 v 1.5927737 h -1.257813 z"
         id="path47" /><path
         d="M 16.395476,-9.8300781 V -7.65625 h 2.590821 v 0.9775391 h -2.590821 v 4.15625 q 0,0.9365234 0.25293,1.203125 0.259766,0.2666015 1.045898,0.2666015 h 1.291993 V 0 H 17.694304 Q 16.23825,0 15.684539,-0.54003906 15.130828,-1.0869141 15.130828,-2.5224609 v -4.15625 H 14.207976 V -7.65625 h 0.922852 v -2.1738281 z"
         id="path49" /><path
         d="m 20.471336,-10.636719 h 1.257813 V 0 h -1.257813 z"
         id="path51" /><path
         d="m 31.724165,-4.1425781 v 0.6152343 h -5.783203 q 0.08203,1.2988282 0.779297,1.9824219 0.704101,0.67675784 1.955078,0.67675784 0.724609,0 1.401367,-0.17773434 0.683594,-0.1777344 1.353516,-0.5332032 v 1.18945316 q -0.676758,0.28710938 -1.387696,0.4375 -0.710937,0.15039063 -1.442382,0.15039063 -1.832032,0 -2.905274,-1.06640625 -1.066406,-1.06640624 -1.066406,-2.88476564 0,-1.8798828 1.011719,-2.9804687 1.018554,-1.1074219 2.741211,-1.1074219 1.544921,0 2.440429,0.9980469 0.902344,0.9912109 0.902344,2.7001953 z m -1.257813,-0.3691406 q -0.01367,-1.0322266 -0.581054,-1.647461 -0.560547,-0.6152344 -1.490235,-0.6152344 -1.052734,0 -1.688476,0.5947266 -0.628906,0.5947266 -0.72461,1.6748047 z"
         id="path53" /></g></g></svg>
